@startuml
'https://plantuml.com/sequence-diagram

left to right direction

package "ECOURSESYSTEMUSER" <<Aggregate>> {

    class SystemUser <<root>> <<Entity>> {
        * Name
        * Username
    }

    class eCourseSystemUser <<root>> <<Entity>> {

    }

    class EmailAdderss <<Value object>>

    class Role <<Entity>> {
        * String name
    }

    class UserStatus <<enum>> {
        + ENABLE
        + DISABLE
    }

    class Password <<value object>>

    class Acronym <<value object>>

    class NIF <<value object>>

    class BirthDate <<value object>>

    class MechanographicNumber <<value object>> <<automatically generated>>

    class Grade <<value object>>

}

package "QUESTION" <<aggregate>> {
    class Question <<root>> <<event>> {
        * id <<unique>>
        * content
    }

    class QuestionType <<enum>>{
        + MULTIPLE_CHOICE
        + TRUE_OR_FALSE
        + SHORT_ANSWER
        + MATCHING
    }

}

class VerifQuestionService <<service>> {

}



'Relationships

SystemUser --> "1" EmailAdderss
SystemUser --> "1" Password
SystemUser --> "1" Role

eCourseSystemUser --> "1" SystemUser
eCourseSystemUser --> "1" Role
eCourseSystemUser --> "1" UserStatus
eCourseSystemUser --> "1" Acronym
eCourseSystemUser --> "1" NIF
eCourseSystemUser --> "1" BirthDate
eCourseSystemUser --> "1" MechanographicNumber
eCourseSystemUser --> "1" Grade : student has a >

eCourseSystemUser --> VerifQuestionService : uses >

eCourseSystemUser "*" - "*" Question : creates/updates >

eCourseSystemUser "*" - "*" QuestionType : choose >


Question "*" - "1" QuestionType : has >

@enduml